<svg xmlns="http://www.w3.org/2000/svg" viewBox="0 0 48 48">
  <rect width="48" height="48" rx="12" fill="#16a34a" />
  <path
    d="M33.6 12.2c-7.3.8-13.4 4-18.2 9.5-4.9 5.6-5.9 12.6-5.9 19.8a1.5 1.5 0 0 0 3 0c0-6.1.5-11.4 3.3-15.9 2.6-4.2 6.7-7.2 11.5-8.9a17.6 17.6 0 0 1-7.6 13.1 1.5 1.5 0 0 0 1.8 2.4c7.5-5.4 12.1-13.6 12.6-20.6.1-.8-.6-1.5-1.5-1.5-.3 0-.6.1-1 .1Z"
    fill="#f0fdf4"
  />
  <path
    d="M32.6 12.1a1.5 1.5 0 0 0-1 2.9c4 1.5 6.8 4.8 7.8 9.3a1.5 1.5 0 0 0 2.9-.6c-1.2-5.4-5.4-9.4-9.7-11.6Z"
    fill="#dcfce7"
    opacity=".7"
  />
</svg>
